# Blender 4.5.4 LTS
# www.blender.org
o SpaceStation
v -0.333333 -1.000000 1.000000
v -1.000000 -0.333333 1.000000
v -1.000000 -1.000000 0.333333
v -0.333333 1.000000 1.000000
v -1.000000 1.000000 0.333333
v -1.000000 0.333333 1.000000
v -1.000000 -1.000000 -0.333333
v -1.000000 -0.333333 -1.000000
v -0.333333 -1.000000 -1.000000
v -0.333333 1.000000 -1.000000
v -1.000000 0.333333 -1.000000
v -1.000000 1.000000 -0.333333
v 1.000000 -1.000000 0.333333
v 1.000000 -0.333333 1.000000
v 0.333333 -1.000000 1.000000
v 0.333333 1.000000 1.000000
v 1.000000 0.333333 1.000000
v 1.000000 1.000000 0.333333
v 0.333333 -1.000000 -1.000000
v 1.000000 -0.333333 -1.000000
v 1.000000 -1.000000 -0.333333
v 1.000000 1.000000 -0.333333
v 1.000000 0.333333 -1.000000
v 0.333333 1.000000 -1.000000
vn -0.5774 -0.5774 0.5774
vn -0.5774 0.5774 0.5774
vn -0.5774 -0.5774 -0.5774
vn -0.5774 0.5774 -0.5774
vn 0.5774 -0.5774 0.5774
vn 0.5774 0.5774 0.5774
vn 0.5774 -0.5774 -0.5774
vn 0.5774 0.5774 -0.5774
vn -0.0000 -1.0000 -0.0000
vn -1.0000 -0.0000 -0.0000
vn -0.0000 -0.0000 1.0000
vn -0.0000 1.0000 -0.0000
vn -0.0000 -0.0000 -1.0000
vn 1.0000 -0.0000 -0.0000
s 0
f 1//1 2//1 3//1
f 4//2 5//2 6//2
f 7//3 8//3 9//3
f 10//4 11//4 12//4
f 13//5 14//5 15//5
f 16//6 17//6 18//6
f 19//7 20//7 21//7
f 22//8 23//8 24//8
f 21//9 15//9 3//9
f 5//10 11//10 7//10
f 16//11 6//11 1//11
f 12//12 4//12 18//12
f 10//13 23//13 19//13
f 22//14 17//14 13//14
f 3//9 7//9 9//9
f 9//9 19//9 21//9
f 21//9 13//9 15//9
f 15//9 1//9 3//9
f 3//9 9//9 21//9
f 7//10 3//10 2//10
f 2//10 6//10 5//10
f 5//10 12//10 11//10
f 11//10 8//10 7//10
f 7//10 2//10 5//10
f 1//11 15//11 14//11
f 14//11 17//11 16//11
f 16//11 4//11 6//11
f 6//11 2//11 1//11
f 1//11 14//11 16//11
f 18//12 22//12 24//12
f 24//12 10//12 12//12
f 12//12 5//12 4//12
f 4//12 16//12 18//12
f 18//12 24//12 12//12
f 19//13 9//13 8//13
f 8//13 11//13 10//13
f 10//13 24//13 23//13
f 23//13 20//13 19//13
f 19//13 8//13 10//13
f 13//14 21//14 20//14
f 20//14 23//14 22//14
f 22//14 18//14 17//14
f 17//14 14//14 13//14
f 13//14 20//14 22//14
